<?xml version="1.0" encoding="utf-8"?>
<!-- Generator: Adobe Illustrator 23.0.2, SVG Export Plug-In . SVG Version: 6.00 Build 0)  -->
<svg version="1.1" id="Layer_1" xmlns="http://www.w3.org/2000/svg" xmlns:xlink="http://www.w3.org/1999/xlink" x="0px" y="0px"
	 viewBox="0 0 300 73" style="enable-background:new 0 0 300 73;" xml:space="preserve">
<g>
	<path d="M28.9,41.8c0-3.3,0.8-6.5,2.4-9.5c1.6-3.1,3.9-5.4,6.9-7c3-1.6,6.3-2.4,9.9-2.4c5.6,0,10.3,1.8,13.9,5.5
		c3.6,3.7,5.4,8.3,5.4,13.9c0,5.6-1.8,10.3-5.5,14c-3.6,3.7-8.2,5.6-13.8,5.6c-3.4,0-6.7-0.8-9.8-2.3c-3.1-1.5-5.5-3.8-7.1-6.8
		S28.9,46.1,28.9,41.8z M39,42.3c0,3.7,0.9,6.5,2.6,8.5s3.9,3,6.5,3c2.6,0,4.7-1,6.5-3c1.7-2,2.6-4.8,2.6-8.6c0-3.7-0.9-6.5-2.6-8.4
		c-1.7-2-3.9-3-6.5-3c-2.6,0-4.7,1-6.5,3S39,38.6,39,42.3z"/>
	<path d="M109.1,61h-9.9V41.9c0-4-0.2-6.6-0.6-7.8c-0.4-1.2-1.1-2.1-2.1-2.8c-0.9-0.7-2.1-1-3.4-1c-1.7,0-3.2,0.5-4.6,1.4
		c-1.4,0.9-2.3,2.2-2.8,3.7c-0.5,1.5-0.8,4.4-0.8,8.6V61h-9.9V23.7h9.2v5.5c3.3-4.2,7.4-6.3,12.3-6.3c2.2,0,4.2,0.4,6,1.2
		c1.8,0.8,3.2,1.8,4.1,3c0.9,1.2,1.6,2.6,1.9,4.1c0.4,1.5,0.5,3.8,0.5,6.6V61z"/>
	<path d="M140.8,49.1l9.8,1.7c-1.3,3.6-3.3,6.4-6,8.2c-2.7,1.9-6.1,2.8-10.2,2.8c-6.5,0-11.3-2.1-14.4-6.4
		c-2.5-3.4-3.7-7.7-3.7-12.9c0-6.2,1.6-11,4.9-14.5c3.2-3.5,7.3-5.3,12.3-5.3c5.6,0,9.9,1.8,13.1,5.5c3.2,3.7,4.7,9.3,4.6,16.9
		h-24.8c0.1,2.9,0.9,5.2,2.4,6.8c1.5,1.6,3.4,2.4,5.7,2.4c1.5,0,2.8-0.4,3.9-1.3S140.2,51,140.8,49.1z M141.3,39.1
		c-0.1-2.9-0.8-5-2.2-6.5c-1.4-1.5-3.1-2.2-5.1-2.2c-2.2,0-3.9,0.8-5.3,2.4c-1.4,1.6-2.1,3.7-2.1,6.4H141.3z"/>
	<path d="M176.3,23.7v7.9h-6.8v15c0,3,0.1,4.8,0.2,5.3s0.4,0.9,0.9,1.2s1,0.5,1.7,0.5c0.9,0,2.2-0.3,4-0.9l0.8,7.7
		c-2.3,1-4.9,1.5-7.8,1.5c-1.8,0-3.4-0.3-4.8-0.9s-2.5-1.4-3.1-2.3s-1.1-2.2-1.4-3.8c-0.2-1.1-0.3-3.5-0.3-7V31.5h-4.5v-7.9h4.5
		v-7.4l9.9-5.8v13.2H176.3z"/>
	<path d="M204.8,49.1l9.8,1.7c-1.3,3.6-3.3,6.4-6,8.2s-6.1,2.8-10.2,2.8c-6.5,0-11.3-2.1-14.4-6.4c-2.5-3.4-3.7-7.7-3.7-12.9
		c0-6.2,1.6-11,4.9-14.5c3.2-3.5,7.3-5.3,12.3-5.3c5.6,0,9.9,1.8,13.1,5.5c3.2,3.7,4.7,9.3,4.6,16.9h-24.8c0.1,2.9,0.9,5.2,2.4,6.8
		s3.4,2.4,5.7,2.4c1.5,0,2.8-0.4,3.9-1.3S204.2,51,204.8,49.1z M205.3,39.1c-0.1-2.9-0.8-5-2.2-6.5c-1.4-1.5-3.1-2.2-5.1-2.2
		c-2.2,0-3.9,0.8-5.3,2.4c-1.4,1.6-2.1,3.7-2.1,6.4H205.3z"/>
	<path d="M257.2,61h-9.9V41.9c0-4-0.2-6.6-0.6-7.8c-0.4-1.2-1.1-2.1-2.1-2.8c-0.9-0.7-2.1-1-3.4-1c-1.7,0-3.2,0.5-4.6,1.4
		c-1.4,0.9-2.3,2.2-2.8,3.7s-0.8,4.4-0.8,8.6V61h-9.9V23.7h9.2v5.5c3.3-4.2,7.4-6.3,12.3-6.3c2.2,0,4.2,0.4,6,1.2
		c1.8,0.8,3.2,1.8,4.1,3c0.9,1.2,1.6,2.6,1.9,4.1s0.5,3.8,0.5,6.6V61z"/>
</g>
</svg>
