<?xml version="1.0" encoding="utf-8"?>
<!-- Generator: Adobe Illustrator 23.0.2, SVG Export Plug-In . SVG Version: 6.00 Build 0)  -->
<svg version="1.1" id="Layer_1" xmlns="http://www.w3.org/2000/svg" xmlns:xlink="http://www.w3.org/1999/xlink" x="0px" y="0px"
	 viewBox="0 0 1200 300" style="enable-background:new 0 0 1200 300;" xml:space="preserve">
<style type="text/css">
	.st0{fill:#965FFF;}
	.st1{fill:#FFFFFF;}
	.st2{fill:#8CD53F;}
	.st3{fill:#00A99D;}
	.st4{fill:#D4145A;}
	.st5{fill:#FCEE21;}
	.st6{fill:#29ABE2;}
	.st7{fill:#BFEFFF;}
</style>
<path class="st0" d="M160.7,89.6c-6.3-6.3-14.6-11.3-24.7-15c-10.2-3.7-22.2-5.6-36.3-5.6c-16.2,0-30.1,2.3-41.6,7
	c-11.3,4.6-20.7,10.9-28,18.9l134.6,0.5C163.8,93.2,162.4,91.3,160.7,89.6z"/>
<path class="st1" d="M131.5,122.5c7.7,3.8,14.2,4.9,19.6,3.3c2.9-0.9,5.4-2.2,7.5-3.8l-28,0C130.8,122.2,131.1,122.4,131.5,122.5z"
	/>
<path class="st2" d="M99.7,113.9c7.1,0,13.2,0.9,18.1,2.7c4.6,1.7,8.8,3.5,12.6,5.5l28,0c1.8-1.4,3.3-3,4.4-4.9
	c2.6-4.1,3.8-8.9,3.5-14.2c-0.1-2.8-0.7-5.3-1.7-7.6L30.1,94.9c-0.1,0.1-0.3,0.3-0.4,0.4c-7,7.8-12.2,16.7-15.6,26.8l58.2,0
	C79.1,116.6,88.3,113.9,99.7,113.9z"/>
<path d="M67.6,126.7c1.4-1.7,3-3.2,4.7-4.6l-58.2,0c-0.2,0.6-0.4,1.2-0.6,1.9c-2.6,8.1-4.2,16.6-4.8,25.6l49.2,0
	C59.2,140.4,62.5,132.7,67.6,126.7z"/>
<path class="st3" d="M56.9,161.3c0-4.1,0.3-8,0.9-11.7l-49.2,0c-0.2,3-0.3,6.1-0.3,9.2v16.7l48.6,0.4V161.3z"/>
<path class="st4" d="M67.6,225.5c-5.1-6.1-8.4-13.7-9.8-22.8H8.6c0.7,8.9,2.3,17.4,4.8,25.5c0.2,0.7,0.4,1.3,0.7,1.9h58.2
	C70.6,228.8,69,227.2,67.6,225.5z"/>
<path class="st5" d="M166.5,246.7c-0.6-4.8-2.3-8.9-5.4-12.4c-1.5-1.7-3.3-3.2-5.4-4.3h-21.5c-0.5,0.2-1,0.5-1.6,0.8
	c-3.3,1.9-7.8,3.6-13.6,5.1c-5.8,1.5-12.2,2.3-19.4,2.3c-11.4,0-20.6-2.7-27.4-8.2H14.1c3.5,10.1,8.6,19,15.6,26.7
	c0.3,0.3,0.6,0.6,0.8,0.9l133.4,0.5C166,254.4,166.9,250.5,166.5,246.7z"/>
<path class="st6" d="M30.5,257.7c7.3,7.8,16.5,14,27.6,18.5c11.5,4.7,25.4,7,41.6,7c13.5,0,25.9-1.9,37.3-5.6
	c11.4-3.7,19.7-9.1,24.9-16.3c0.8-1.1,1.4-2.1,2-3.2L30.5,257.7z"/>
<path class="st4" d="M149,227.8c-4.6-0.9-9.5-0.1-14.7,2.3h21.5C153.7,229.1,151.5,228.3,149,227.8z"/>
<path class="st7" d="M56.9,190.9v-15.1l-48.6-0.4v18c0,3.2,0.1,6.3,0.3,9.3h49.2C57.2,199,56.9,195.1,56.9,190.9z"/>
<path d="M256.3,88.7c0-4.9-2.1-9.4-6.4-13.4c-4.3-4-10-6-17.1-6c-7.4,0-13.4,2-17.9,6c-4.5,4-6.8,8.4-6.8,13.4V122l48.2,0V88.7z"/>
<polygon class="st1" points="256.3,122 208.1,122 208.1,149.7 256.3,149.7 "/>
<path d="M342.4,149.7v44.5c0,15.1-4.1,26.2-12.2,33.4c-8.1,7.1-18.3,10.7-30.7,10.7c-12.4,0-22.7-3.6-30.9-10.7
	c-8.2-7.1-12.4-18.3-12.4-33.4v-44.5l-48.2,0v42.9c0,12.9,1.9,24.9,5.8,36c3.8,11.1,9.6,20.7,17.3,28.8c7.7,8.1,17.2,14.4,28.6,19
	c11.4,4.5,24.6,6.8,39.8,6.8c15.1,0,28.4-2.3,39.8-6.8c11.4-4.5,20.9-10.8,28.6-19c7.7-8.1,13.5-17.7,17.3-28.8
	c3.8-11.1,5.8-23.1,5.8-36v-42.8L342.4,149.7z"/>
<polygon class="st1" points="391,121.9 342.4,121.9 342.4,149.7 391,149.8 "/>
<path d="M391,88.7c0-4.9-2.3-9.4-7-13.4c-4.7-4-10.6-6-17.7-6c-7.1,0-12.9,2-17.3,6c-4.4,4-6.6,8.4-6.6,13.4v33.2l48.6,0V88.7z"/>
<path d="M508.6,120.1c3.4-2.5,7.6-4.1,12.6-4.9c4.9-0.8,10.4-1.2,16.5-1.2c4.1,0,8.4,0.2,12.8,0.6c4.4,0.4,8.5,0.4,12.4,0
	c3.8-0.4,7.1-1.6,9.9-3.7c2.7-2.1,4.5-5.6,5.4-10.5c1.6-9.9-1.2-17.6-8.4-23.1c-7.3-5.5-17.9-8.2-31.9-8.2
	c-30.5,0-52.7,7.1-66.7,21.2c-8.3,8.4-14.2,19-17.6,31.7l53.2,0C507.2,121.2,507.9,120.6,508.6,120.1z"/>
<path d="M449.9,149.8c0,0.2,0,0.5,0,0.7v113.3c0,4.9,2.3,9.4,6.8,13.4c4.5,4,10.5,6,17.9,6c7.1,0,12.8-2,17.1-6
	c4.3-4,6.4-8.4,6.4-13.4v-114L449.9,149.8z"/>
<path class="st1" d="M498.1,148.9c0-7.4,0.9-13.5,2.7-18.1c1.4-3.7,3.3-6.6,5.7-9l-53.2,0c-2.2,8.4-3.4,17.7-3.4,28l48.2,0V148.9z"
	/>
<path class="st1" d="M657,144c2.3-5.8,5.6-10.9,9.7-15.4c2.3-2.6,5-4.8,7.8-6.8l-60.9,0c-1.3,2.7-2.4,5.4-3.4,8.2
	c-2.4,6.6-4.1,13.3-5.1,20l49.9,0C655.5,147.9,656.2,145.9,657,144z"/>
<path d="M739.5,150c0,0.5,0,0.9,0,1.4v38.7c0,8-1.4,15-4.1,21c-2.7,6-6.3,11.1-10.7,15c-4.4,4-9.4,7-15,9.1
	c-5.6,2.1-11.5,3.1-17.5,3.1c-11,0-20.2-3.6-27.6-10.7c-7.4-7.1-11.1-15.7-11.1-25.5v-39.6c0-4.4,0.5-8.5,1.5-12.6l-49.9,0
	c-0.7,4.7-1.1,9.5-1.1,14.2v36.3c0,10.4,1.6,20.6,4.7,30.5c3.2,9.9,7.9,18.7,14.2,26.4c6.3,7.7,14.4,13.9,24.3,18.7
	c9.9,4.8,21.4,7.2,34.6,7.2c8.2,0,15.2-0.6,20.8-1.9c5.6-1.2,10.5-3,14.6-5.4c4.1-2.3,7.6-5,10.5-8c2.9-3,5.6-6.3,8-9.9l3.7,1.2v6.6
	c0,4.9,2.1,9.4,6.4,13.4c4.3,4,9.8,6,16.7,6c7.7,0,13.7-2,18.1-6c4.4-4,6.6-8.4,6.6-13.4V150.5c0-0.2,0-0.3,0-0.5L739.5,150z"/>
<path class="st1" d="M783.5,121.6l-54.9,0c0.3,0.2,0.6,0.4,0.8,0.6c6.5,5.4,9.9,14.7,10.1,27.7l47.8,0
	C787.3,139.9,786,130.4,783.5,121.6z"/>
<path d="M681.5,117.8c5.8-2.6,12.2-3.9,19.4-3.9c11.9,0,21.1,2.6,27.8,7.8l54.9,0c-0.4-1.2-0.7-2.4-1.1-3.6
	c-3.3-9.9-8.4-18.5-15.5-25.8c-7-7.3-16-13-27-17.1c-11-4.1-24-6.2-39.1-6.2c-16.2,0-30.4,2.8-42.4,8.4c-12.1,5.6-22.1,13-30.1,22
	c-6,6.8-10.9,14.2-14.7,22.3l60.9,0C676.7,120.2,679,118.9,681.5,117.8z"/>
<path d="M908.5,111H939c4.7,0,8.8-1.7,12.4-5.1c3.6-3.4,5.4-8.2,5.4-14.2c0-5.5-1.8-10-5.4-13.4c-3.6-3.4-7.7-5.1-12.4-5.1h-30.5
	V30.7c0-4.9-2.1-9.4-6.4-13.4c-4.3-4-10-6-17.1-6c-7.7,0-13.7,2-18.1,6c-4.4,4-6.6,8.4-6.6,13.4v42.4h-16.5c-4.7,0-8.8,1.7-12.4,5.1
	c-3.6,3.4-5.4,7.9-5.4,13.4c0,6,1.8,10.8,5.4,14.2c3.6,3.4,7.7,5.1,12.4,5.1h16.5v10.6l48.2,0V111z"/>
<polygon class="st1" points="908.5,121.6 860.3,121.6 860.3,150.1 908.5,150.1 "/>
<path d="M953.4,237.5c-4.9,0-9.3,0.5-13.2,1.4c-3.8,1-8.5,1.4-14,1.4c-5.8,0-10.2-2.1-13.2-6.2c-3-4.1-4.5-11.9-4.5-23.5v-60.6
	l-48.2,0v59c0,27.2,4.9,46.4,14.8,57.5c9.9,11.1,25.5,16.7,47,16.7c6.6,0,12.8-0.4,18.7-1.2c5.9-0.8,11.1-2.3,15.7-4.3
	c4.5-2.1,8.2-4.7,10.9-8c2.7-3.3,4.1-7.6,4.1-12.8c0-6-1.4-10.8-4.3-14.2C964.3,239.2,959.7,237.5,953.4,237.5z"/>
<path class="st1" d="M1069.9,121.5l-52.2,0c-0.2,0.5-0.4,1-0.6,1.4c-3.6,8.6-5.8,17.7-6.5,27.2l47.7,0
	C1059.4,138.4,1063.3,128.9,1069.9,121.5z"/>
<path class="st1" d="M1182.9,123.4c-0.2-0.7-0.5-1.3-0.7-2l-49.1,0c6,6.3,9,14.3,9,24.2v4.6l45.7,0
	C1187.5,141.4,1185.9,132.4,1182.9,123.4z"/>
<path d="M1142.1,150.2v1.5h-84c0-0.5,0.1-1.1,0.2-1.6l-47.7,0c-0.2,2.3-0.3,4.6-0.3,7v43.7c0,11.3,2.3,21.9,7,31.9
	c4.7,10,11.2,18.7,19.6,26.2c8.4,7.4,18.3,13.3,29.9,17.7s24.3,6.6,38.3,6.6c10.2,0,19.7-1.2,28.6-3.5c8.9-2.3,16.7-5.3,23.3-8.9
	c6.6-3.6,11.8-7.6,15.7-11.9c3.8-4.4,5.8-8.8,5.8-13.2c-0.3-5.2-1.9-9.5-4.9-12.8c-3-3.3-7.3-4.9-12.8-4.9c-3,0-6.3,1-9.9,2.9
	c-3.6,1.9-7.3,3.8-11.1,5.8c-3.6,1.6-8.4,3-14.6,3.9c-6.2,1-13,1.4-20.4,1.4c-14.8,0-26.3-4-34.4-11.9c-8.1-8-12.2-18.5-12.2-31.7
	v-10.7h97.6c11.5,0,19.8-2.6,24.7-7.8c4.9-5.2,7.4-14.3,7.4-27.2c0-0.8,0-1.6,0-2.3L1142.1,150.2z"/>
<path d="M1070.6,120.7c7.3-7.8,17.1-11.7,29.5-11.7c12.4,0,22.5,3.3,30.3,9.9c1,0.8,1.9,1.7,2.8,2.6l49.1,0
	c-3.3-9.1-8.2-17.5-14.7-25c-7-8.1-16-14.7-27-19.8c-11-5.1-24.3-7.6-40-7.6c-13.2,0-25.3,2.3-36.3,7c-11,4.7-20.5,11-28.4,19
	c-7.6,7.6-13.6,16.5-18.1,26.6l52.2,0C1070.1,121.2,1070.4,120.9,1070.6,120.7z"/>
</svg>
