<?xml version="1.0" encoding="utf-8"?>
<!-- Generator: Adobe Illustrator 23.0.2, SVG Export Plug-In . SVG Version: 6.00 Build 0)  -->
<svg version="1.1" id="Layer_1" xmlns="http://www.w3.org/2000/svg" xmlns:xlink="http://www.w3.org/1999/xlink" x="0px" y="0px"
	 viewBox="0 0 1300 310" style="enable-background:new 0 0 1300 310;" xml:space="preserve">
<style type="text/css">
	.st0{fill:#FFFFFF;}
</style>
<g>
	<path class="st0" d="M277.3,174.6V92.5c0-5.4-2.3-10.3-7-14.6c-4.7-4.3-10.9-6.5-18.7-6.5c-8.1,0-14.6,2.2-19.6,6.5
		c-4.9,4.4-7.4,9.2-7.4,14.6v82.1H277.3z"/>
	<path class="st0" d="M424.4,174.6V92.5c0-5.4-2.6-10.3-7.6-14.6c-5.1-4.3-11.6-6.5-19.4-6.5c-7.8,0-14.1,2.2-18.9,6.5
		c-4.8,4.4-7.2,9.2-7.2,14.6v82.1H424.4z"/>
	<path class="st0" d="M371.3,202.6v5.1c0,16.5-4.4,28.7-13.3,36.5c-8.9,7.8-20,11.7-33.5,11.7s-24.8-3.9-33.8-11.7
		c-9-7.8-13.5-19.9-13.5-36.5v-5.1h-52.6v3.3c0,14.1,2.1,27.2,6.3,39.4c4.2,12.1,10.5,22.7,18.9,31.5c8.4,8.9,18.8,15.8,31.3,20.7
		c12.4,4.9,26.9,7.4,43.4,7.4c16.5,0,31-2.5,43.4-7.4c12.4-5,22.9-11.8,31.3-20.7c8.4-8.8,14.7-19.4,18.9-31.5
		c4.2-12.1,6.3-25.3,6.3-39.4v-3.3H371.3z"/>
</g>
<g>
	<path class="st0" d="M59.5,174.6v-2.9c0-15.9,3.9-28.5,11.7-37.8c0.1-0.1,0.1-0.2,0.2-0.2l-47.1-27.2C19,113.8,14.9,122,12,131
		c-3.8,11.9-5.6,24.5-5.6,38v5.6H59.5z"/>
	<path class="st0" d="M174.2,125.3c0.4-0.5,0.8-1.1,1.2-1.7c2.8-4.5,4.1-9.7,3.8-15.5c-0.3-5.9-2.4-10.7-6.3-14.6
		c-6.8-6.8-15.6-12.2-26.5-16.2L174.2,125.3z"/>
	<path class="st0" d="M71.2,241.9c-7.8-9.3-11.7-21.9-11.7-37.8v-1.5H6.4v4.2c0,13.5,1.9,26.2,5.6,38c3,9.4,7.3,17.9,13.1,25.5
		l47.2-27.2C71.9,242.7,71.5,242.3,71.2,241.9z"/>
	<path class="st0" d="M174,252.3l-26.8,46.4c12.4-4,21.4-10,27.1-17.7c3.9-5.4,5.5-10.7,4.9-16C178.6,260.2,176.9,255.9,174,252.3z"
		/>
	<path class="st0" d="M103.7,120c0.8,0,1.7,0,2.6,0c7.8,0,14.4,1,19.8,2.9c5.4,2,10.3,4.1,14.8,6.5c1.5,0.8,3,1.4,4.4,2L110.5,71
		c-1.4,0-2.8-0.1-4.2-0.1c-17.7,0-32.9,2.6-45.4,7.6c-5.5,2.2-10.6,4.9-15.3,7.9L103.7,120z"/>
	<path class="st0" d="M111.3,304.8l33.7-58.4c-0.9,0.4-1.8,0.8-2.7,1.3c-3.6,2.1-8.5,4-14.9,5.6c-6.3,1.7-13.4,2.5-21.1,2.5
		c-0.1,0-0.1,0-0.1,0l-59.4,34.3c4.3,2.7,9,5.1,14.1,7.1c12.6,5.1,27.7,7.6,45.4,7.6C108,304.9,109.7,304.9,111.3,304.8z"/>
</g>
<g>
	<path class="st0" d="M1293.9,174.6c0.6-3.7,0.9-7.8,0.9-12.4c0-10.5-1.8-21.1-5.4-32c-3.6-10.8-9.2-20.6-16.9-29.5
		c-7.7-8.8-17.5-16-29.5-21.6c-12-5.5-26.5-8.3-43.6-8.3c-14.4,0-27.6,2.6-39.6,7.6c-12,5.1-22.4,12-31,20.7
		c-8.7,8.7-15.5,18.9-20.5,30.6c-5,11.7-7.4,24.2-7.4,37.3v7.4H1293.9z M1166.7,127.4c7.9-8.6,18.7-12.8,32.2-12.8
		s24.5,3.6,33.1,10.8c8.5,7.2,12.8,17,12.8,29.3v6.8H1153C1154.2,147.3,1158.8,135.9,1166.7,127.4z"/>
	<path class="st0" d="M1265,244.6c-3.3,0-6.9,1.1-10.8,3.1c-3.9,2.1-8,4.2-12.1,6.3c-3.9,1.8-9.2,3.2-16,4.3
		c-6.8,1.1-14.2,1.6-22.3,1.6c-16.2,0-28.7-4.3-37.6-13c-8.9-8.7-13.3-20.3-13.3-34.7v-9.6h-52.2v12.3c0,12.3,2.5,23.9,7.7,34.9
		c5.1,11,12.2,20.5,21.4,28.6c9.1,8.1,20,14.6,32.6,19.3c12.6,4.8,26.5,7.2,41.8,7.2c11.1,0,21.5-1.3,31.3-3.8
		c9.7-2.5,18.2-5.8,25.4-9.7c7.2-3.9,12.9-8.2,17.1-13c4.2-4.8,6.3-9.6,6.3-14.4c-0.3-5.7-2.1-10.3-5.4-13.9
		C1275.7,246.4,1271,244.6,1265,244.6z"/>
</g>
<g>
	<path class="st0" d="M1038.7,255c-5.4,0-10.2,0.5-14.4,1.6c-4.2,1.1-9.3,1.6-15.3,1.6c-6.3,0-11.1-2.3-14.4-6.8
		c-3.3-4.5-5-13.1-5-25.7v-23.1H937v21.3c0,29.7,5.4,50.6,16.2,62.8s27.9,18.2,51.3,18.2c7.2,0,14-0.5,20.5-1.4
		c6.4-0.9,12.1-2.5,17.1-4.7s8.9-5.2,11.9-8.8c3-3.6,4.5-8.2,4.5-13.9c0-6.6-1.6-11.8-4.7-15.5C1050.6,256.8,1045.6,255,1038.7,255z
		"/>
	<path class="st0" d="M919,116.8h18v57.8h52.7v-57.8h33.3c5.1,0,9.6-1.9,13.5-5.6c3.9-3.7,5.9-8.9,5.9-15.5c0-6-2-10.9-5.9-14.6
		c-3.9-3.7-8.4-5.6-13.5-5.6h-33.3V29.1c0-5.4-2.3-10.3-7-14.6c-4.7-4.3-10.9-6.5-18.7-6.5c-8.4,0-15,2.2-19.8,6.5
		c-4.8,4.4-7.2,9.2-7.2,14.6v46.4h-18c-5.1,0-9.6,1.9-13.5,5.6c-3.9,3.8-5.8,8.6-5.8,14.6c0,6.6,1.9,11.8,5.8,15.5
		C909.4,114.9,913.9,116.8,919,116.8z"/>
</g>
<g>
	<path class="st0" d="M805.1,202.6v0.6c0,8.7-1.5,16.4-4.5,23c-3,6.6-6.9,12.1-11.7,16.4c-4.8,4.4-10.3,7.7-16.4,9.9
		c-6.2,2.3-12.5,3.4-19.1,3.4c-12,0-22-3.9-30.2-11.7c-8.1-7.8-12.1-17.1-12.1-27.9v-13.6h-54v11.8c0,11.4,1.7,22.5,5.2,33.3
		c3.4,10.8,8.6,20.4,15.5,28.8c6.9,8.4,15.8,15.2,26.5,20.5s23.4,7.9,37.8,7.9c9,0,16.6-0.7,22.7-2c6.1-1.4,11.5-3.3,16-5.9
		c4.5-2.5,8.3-5.5,11.5-8.8c3.2-3.3,6.1-6.9,8.8-10.8l4,1.4v7.2c0,5.4,2.3,10.3,7,14.6c4.6,4.3,10.7,6.5,18.2,6.5
		c8.4,0,15-2.2,19.8-6.5c4.8-4.3,7.2-9.2,7.2-14.6v-83.4H805.1z"/>
	<path class="st0" d="M711.1,174.6v-1.6c0-7.2,1.3-13.9,3.8-20.3c2.5-6.3,6.1-11.9,10.6-16.9c4.5-4.9,9.9-8.8,16.2-11.7
		c6.3-2.8,13.3-4.3,21.2-4.3c13.5,0,23.9,3.1,31.3,9.2c7.3,6.2,11,16.7,11,31.7v13.7h52.2V160c0-12.9-1.8-24.8-5.4-35.6
		c-3.6-10.8-9.2-20.2-16.9-28.1c-7.6-7.9-17.5-14.2-29.5-18.7c-12-4.5-26.3-6.8-42.8-6.8c-17.7,0-33.2,3.1-46.4,9.2
		c-13.2,6.2-24.2,14.2-32.8,24.1c-8.7,9.9-15.3,21-19.8,33.3c-4.5,12.2-6.7,24.6-6.7,37.1H711.1z"/>
</g>
<g>
	<path class="st0" d="M541.4,174.6v-16.4c0-8.1,1-14.7,2.9-19.8c1.9-5.1,4.8-9,8.6-11.7c3.7-2.7,8.3-4.5,13.7-5.4s11.4-1.4,18-1.4
		c4.5,0,9.1,0.2,14,0.7c4.8,0.4,9.3,0.4,13.5,0c4.2-0.5,7.8-1.8,10.8-4.1c3-2.3,5-6.1,5.8-11.5c1.8-10.8-1.3-19.2-9.2-25.2
		c-8-6-19.6-9-34.9-9c-33.3,0-57.6,7.7-72.9,23.2c-15.3,15.5-22.9,37.4-22.9,65.9v14.6H541.4z"/>
	<path class="st0" d="M488.8,202.6v81.1c0,5.4,2.5,10.3,7.4,14.6c5,4.3,11.5,6.5,19.6,6.5c7.8,0,14-2.2,18.7-6.5
		c4.6-4.3,7-9.2,7-14.6v-81.1H488.8z"/>
</g>
</svg>
